<?xml version="1.0" standalone="no"?>
<!DOCTYPE svg PUBLIC "-//W3C//DTD SVG 20010904//EN"
 "http://www.w3.org/TR/2001/REC-SVG-20010904/DTD/svg10.dtd">
<svg version="1.0" xmlns="http://www.w3.org/2000/svg"
 width="512.000000pt" height="512.000000pt" viewBox="0 0 512.000000 512.000000"
 preserveAspectRatio="xMidYMid meet">

<g transform="translate(0.000000,512.000000) scale(0.100000,-0.100000)"
fill="#000000" stroke="none">
<path d="M1305 3975 c-30 -29 -32 -74 -6 -106 18 -22 28 -24 137 -29 l118 -5
128 -244 c71 -135 127 -250 124 -258 -5 -11 -232 -379 -242 -392 -2 -2 -40 10
-83 28 -136 53 -201 65 -361 65 -160 1 -246 -16 -384 -75 -271 -115 -487 -378
-554 -673 -22 -99 -22 -328 1 -420 56 -225 196 -436 373 -562 81 -58 231 -129
329 -156 114 -31 355 -31 466 0 308 84 550 298 663 585 23 59 38 115 62 245 4
21 9 22 88 22 l84 0 12 -31 c7 -17 24 -47 37 -66 l24 -36 -80 -121 c-112 -169
-110 -181 39 -256 110 -55 136 -60 168 -30 53 49 37 107 -38 145 l-52 26 18
27 c78 121 76 119 114 109 19 -5 62 -7 95 -4 156 12 277 133 292 290 6 75 -6
124 -49 197 l-33 55 275 442 c151 243 277 442 280 443 3 0 38 -65 77 -144 l72
-145 -62 -44 c-70 -50 -177 -160 -227 -231 -55 -81 -109 -199 -137 -302 -37
-135 -39 -332 -5 -468 24 -96 90 -246 142 -321 90 -131 230 -248 382 -320 143
-68 244 -89 413 -89 166 1 281 27 414 93 120 60 165 93 266 196 262 266 343
644 215 998 -91 251 -316 476 -567 567 -205 74 -440 78 -634 12 l-55 -20 -157
314 -157 314 230 0 231 0 24 -25 c50 -49 15 -135 -55 -135 -70 0 -105 -86 -55
-135 47 -48 145 -26 220 50 71 70 91 145 63 239 -16 55 -99 138 -154 154 -29
8 -138 12 -353 12 l-312 0 -24 -25 c-14 -13 -25 -36 -25 -50 0 -14 25 -75 55
-135 l55 -110 -644 0 -644 0 -105 200 -104 200 69 0 c60 0 72 3 93 25 16 15
25 36 25 55 0 19 -9 40 -25 55 l-24 25 -271 0 -271 0 -24 -25z m1905 -699 c0
-3 -123 -202 -273 -443 l-274 -438 -86 0 -87 0 -227 434 c-126 238 -229 437
-231 442 -2 5 248 9 587 9 325 0 591 -2 591 -4z m-1084 -529 l220 -422 -34
-44 c-18 -25 -41 -62 -49 -83 l-15 -39 -87 3 -86 3 -7 58 c-25 200 -138 412
-299 561 -39 36 -69 69 -67 74 8 20 193 312 198 312 3 0 104 -191 226 -423z
m-880 122 c70 -12 212 -57 219 -69 3 -5 -91 -164 -210 -353 -142 -227 -215
-353 -215 -371 0 -15 11 -38 25 -51 l24 -25 414 0 415 0 -13 -67 c-83 -431
-504 -720 -927 -639 -311 60 -547 278 -634 586 -25 89 -26 308 0 400 26 97 89
219 154 302 174 219 477 335 748 287z m2944 -12 c209 -57 368 -171 480 -344
204 -312 160 -733 -105 -998 -155 -154 -341 -230 -565 -229 -175 0 -298 35
-433 124 -186 121 -310 307 -353 528 -48 251 37 522 222 706 58 57 131 113
138 105 2 -2 85 -167 185 -366 108 -216 188 -366 200 -373 51 -27 121 11 121
65 0 14 -81 187 -180 385 -99 198 -180 362 -180 364 0 7 88 34 145 45 67 13
257 6 325 -12z m-2511 -209 c123 -122 192 -250 225 -420 l14 -68 -325 0 c-189
0 -323 4 -321 9 7 21 333 540 339 541 3 0 34 -28 68 -62z m881 -412 c0 -3 -9
-21 -21 -40 -20 -34 -24 -36 -72 -36 l-50 0 24 26 c13 15 38 33 54 40 29 13
65 18 65 10z m156 -121 c14 -77 -25 -153 -93 -181 -76 -32 -76 -22 0 100 40
63 75 115 79 115 4 1 10 -15 14 -34z"/>
</g>
</svg>
