<?xml version="1.0" standalone="no"?>
<!DOCTYPE svg PUBLIC "-//W3C//DTD SVG 20010904//EN"
 "http://www.w3.org/TR/2001/REC-SVG-20010904/DTD/svg10.dtd">
<svg version="1.0" xmlns="http://www.w3.org/2000/svg"
 width="512.000000pt" height="512.000000pt" viewBox="0 0 512.000000 512.000000"
 preserveAspectRatio="xMidYMid meet">

<g transform="translate(0.000000,512.000000) scale(0.100000,-0.100000)"
fill="#000000" stroke="none">
<path d="M2115 3993 c-104 -14 -211 -68 -288 -146 -103 -104 -147 -220 -147
-388 0 -53 -5 -121 -10 -150 -24 -125 -111 -237 -229 -293 -61 -29 -74 -31
-171 -31 -97 0 -110 2 -173 32 -92 44 -153 109 -215 230 -81 157 -162 233
-293 274 -258 80 -530 -85 -579 -354 -7 -37 -10 -287 -7 -729 4 -759 -1 -714
85 -888 39 -80 61 -110 137 -186 141 -142 276 -210 466 -234 115 -14 3623 -14
3738 0 190 24 325 92 466 234 76 76 98 106 137 186 66 135 82 200 82 350 1
101 -4 140 -22 204 -77 267 -270 462 -537 545 -53 17 -113 24 -245 31 -249 13
-392 54 -551 160 -41 27 -338 268 -660 537 -322 268 -602 501 -622 516 -60 45
-157 86 -232 97 -71 10 -78 10 -130 3z m149 -320 c17 -9 97 -71 178 -138 l146
-122 -164 -164 -164 -164 107 -107 108 -108 175 174 175 175 30 -27 c17 -15
46 -40 64 -55 l34 -28 -156 -157 -157 -157 105 -105 105 -105 163 163 c89 89
166 162 171 162 5 0 34 -21 65 -47 31 -26 58 -48 61 -50 2 -2 -63 -71 -145
-153 l-150 -150 105 -105 105 -105 160 160 160 159 55 -35 c203 -130 456 -204
702 -204 164 0 284 -47 383 -151 57 -60 108 -154 121 -221 l6 -38 -2256 0
-2256 0 0 578 c0 543 1 579 19 612 55 105 208 108 265 6 13 -22 43 -77 67
-121 29 -53 71 -107 125 -161 66 -68 97 -90 175 -128 117 -57 197 -76 320 -76
310 0 580 198 676 498 20 62 26 108 32 233 6 148 8 158 33 195 60 86 162 113
252 67z m2486 -2011 c0 -15 -55 -86 -93 -119 -51 -45 -113 -79 -182 -100 -57
-17 -146 -18 -1915 -18 -1769 0 -1858 1 -1915 18 -69 21 -131 55 -182 100 -38
33 -93 104 -93 119 0 4 986 8 2190 8 1205 0 2190 -4 2190 -8z"/>
</g>
</svg>
